HIERARCHY
ROOT Hips
{
  OFFSET 1.44925e-005 102.336 -0.101585
  CHANNELS 6 Xposition Yposition Zposition Zrotation Xrotation Yrotation
  JOINT LeftUpLeg
  {
    OFFSET 8.9458 -8.66707 0.101652
    CHANNELS 3 Zrotation Xrotation Yrotation
    JOINT LeftLeg
    {
      OFFSET 0 -44.4227 1.3727
      CHANNELS 3 Zrotation Xrotation Yrotation
      JOINT LeftFoot
      {
        OFFSET -0.253549 -42.0924 -1.46059
        CHANNELS 3 Zrotation Xrotation Yrotation
        JOINT LeftToes
        {
          OFFSET -0.04 -4.41509 8.4991
          CHANNELS 3 Zrotation Xrotation Yrotation
          End Site
          {
            OFFSET 0.08 -0.047448 9.77979
          }
        }
      }
    }
  }
  JOINT Spine
  {
    OFFSET 0 11.8905 0
    CHANNELS 3 Zrotation Xrotation Yrotation
    JOINT Spine1
    {
      OFFSET 0 25.6574 0.127663
      CHANNELS 3 Zrotation Xrotation Yrotation
      JOINT RightShoulder
      {
        OFFSET -8.99 -0.362252 -0.22
        CHANNELS 3 Zrotation Xrotation Yrotation
        JOINT RightArm
        {
          OFFSET -10.2827 -0.00338 0.322123
          CHANNELS 3 Zrotation Xrotation Yrotation
          JOINT RightForeArm
          {
            OFFSET -26.364 0.099144 -1.42434
            CHANNELS 3 Zrotation Xrotation Yrotation
            JOINT RightHand
            {
              OFFSET -22.0324 0.085362 1.02216
              CHANNELS 3 Zrotation Xrotation Yrotation
              End Site
              {
                OFFSET -13.3284 -0.6 1.50291
              }
            }
          }
        }
      }
      JOINT LeftShoulder1
      {
        OFFSET 8.99 -0.362252 -0.22
        CHANNELS 3 Zrotation Xrotation Yrotation
        JOINT LeftArm
        {
          OFFSET 10.2827 -0.00337999 0.322123
          CHANNELS 3 Zrotation Xrotation Yrotation
          JOINT LeftForeArm
          {
            OFFSET 26.2597 0.099144 -1.42434
            CHANNELS 3 Zrotation Xrotation Yrotation
            JOINT LeftHand
            {
              OFFSET 22.0902 0.085362 1.02216
              CHANNELS 3 Zrotation Xrotation Yrotation
              End Site
              {
                OFFSET 13.419 -0.6 1.50291
              }
            }
          }
        }
      }
      JOINT Head
      {
        OFFSET 0 8.73416 0.011341
        CHANNELS 3 Zrotation Xrotation Yrotation
        End Site
        {
          OFFSET -0.29 12.7742 2.51395
        }
      }
    }
  }
  JOINT RightUpLeg
  {
    OFFSET -8.9458 -8.66707 0.101652
    CHANNELS 3 Zrotation Xrotation Yrotation
    JOINT RightLeg
    {
      OFFSET 0 -44.4227 1.3727
      CHANNELS 3 Zrotation Xrotation Yrotation
      JOINT RightFoot
      {
        OFFSET 0.253549 -42.0924 -1.46059
        CHANNELS 3 Zrotation Xrotation Yrotation
        JOINT RightToes
        {
          OFFSET 0.04 -4.41509 8.4991
          CHANNELS 3 Zrotation Xrotation Yrotation
          End Site
          {
            OFFSET -0.08 -0.137448 9.77979
          }
        }
      }
    }
  }
}
MOTION
Frames:	17
Frame Time:	0.0333333
194.302 103.059 8.27892 -5.44024 -0.0443527 -91.057 -1.69285 1.97631 2.06836 -0.46325 9.48825 18.1096 -1.06568 -10.8652 0.0120266 -1.34469e-009 8.7523e-006 -1.47261e-008 -0.523684 8.58708 -0.161331 0.41778 -2.49943 -0.185826 35.8688 1.77678 0.211733 41.9443 -19.8762 5.31593 8.04135 40.7365 7.5246 -7.72759 9.56507 0.119375 -43.6897 3.51543 -3.47179 -29.1671 -15.3715 -1.34799 -7.35747 40.8987 -10.2838 5.82328 9.61819 -0.917488 0.0874382 -3.52882 -4.83062 -0.652919 2.5793 -4.65511 0.977591 10.1213 -14.1489 3.04182 -12.3572 -0.0756126 0.0462048 0.000530889 0.662642 
194.33 103.059 8.27786 -5.43089 -0.0384312 -91.0897 -1.6873 1.93996 2.07037 -0.466918 9.50461 18.1443 -1.02538 -10.8677 0.0120267 -1.34469e-009 8.7523e-006 -1.47261e-008 -0.486088 8.53657 -0.133845 0.37561 -2.44619 -0.148387 35.9137 1.76864 0.188296 41.9433 -20.0765 5.33118 8.006 40.9456 7.48631 -7.6506 9.58061 -0.0873501 -43.7395 3.51546 -3.46269 -29.1241 -15.517 -1.42335 -7.4102 41.1591 -10.1676 5.82328 9.61819 -0.917488 0.345836 -3.20046 -3.63433 -0.657837 2.53562 -4.65869 0.986443 10.1509 -14.116 3.04523 -12.3647 -0.0756148 0.0462048 0.000530889 0.662642 
194.382 103.058 8.27164 -5.42896 -0.0284756 -91.1444 -1.67069 1.87836 2.08163 -0.474899 9.5666 18.1824 -1.0095 -10.8791 0.0120271 -1.34469e-009 8.7523e-006 -1.47261e-008 -0.444082 8.51263 -0.0964564 0.323349 -2.39577 -0.100618 35.8794 1.73909 0.121034 42.1084 -20.4366 5.38485 7.92695 41.3264 7.44185 -7.51506 9.60371 -0.388347 -43.776 3.5155 -3.45117 -29.1112 -15.7196 -1.49221 -7.45903 41.488 -10.0385 5.82328 9.61819 -0.917488 0.414888 -2.62103 -2.44992 -0.66887 2.4771 -4.6763 1.01816 10.1969 -14.0333 3.05229 -12.3868 -0.0756212 0.0462048 0.000530889 0.662642 
194.435 103.053 8.25929 -5.45213 -0.0212015 -91.1865 -1.65207 1.83365 2.10016 -0.480166 9.6567 18.1965 -1.05448 -10.9005 0.012028 -1.34469e-009 8.7523e-006 -1.47261e-008 -0.440476 8.5764 -0.0808577 0.304547 -2.40174 -0.0836653 35.7712 1.70982 0.0607995 42.3536 -20.7321 5.46158 7.79918 41.8006 7.46004 -7.27944 9.62046 -0.508027 -43.7517 3.5155 -3.45292 -29.1578 -15.7329 -1.44314 -7.43113 41.4433 -10.0733 5.82328 9.61819 -0.917488 0.340381 -2.09844 -1.92255 -0.680087 2.45641 -4.70131 1.0564 10.2209 -13.9516 3.02779 -12.4034 -0.075626 0.0462048 0.000530889 0.662642 
194.481 103.046 8.24701 -5.48991 -0.0214286 -91.215 -1.64542 1.81765 2.10671 -0.479394 9.7255 18.2116 -1.10278 -10.9197 0.0120288 -1.34469e-009 8.7523e-006 -1.47261e-008 -0.47068 8.69751 -0.0877263 0.316773 -2.45174 -0.0945921 35.6961 1.70164 0.0477921 42.5019 -20.7978 5.54679 7.67396 42.1885 7.53814 -7.08993 9.62027 -0.353395 -43.7119 3.51546 -3.464 -29.1988 -15.5497 -1.32163 -7.37267 41.0351 -10.2196 5.82328 9.61819 -0.917488 0.431748 -1.64023 -1.61567 -0.6955 2.45425 -4.73763 1.09076 10.2456 -13.8915 2.99131 -12.4099 -0.0756279 0.0462048 0.000530889 0.662642 
194.531 103.04 8.23656 -5.51505 -0.0347514 -91.2519 -1.65844 1.80283 2.09206 -0.47783 9.75161 18.2597 -1.10098 -10.9212 0.0120288 -1.34469e-009 8.7523e-006 -1.47261e-008 -0.541586 8.78336 -0.0927649 0.375648 -2.45638 -0.111032 35.6495 1.70625 0.0629006 42.5957 -20.6163 5.67593 7.65333 42.1294 7.61043 -7.24179 9.60111 -0.121034 -43.7436 3.51543 -3.46978 -29.1768 -15.364 -1.27086 -7.35033 40.6567 -10.3223 5.82328 9.61819 -0.917488 0.600747 -1.27812 -1.27355 -0.727099 2.41323 -4.78498 1.11981 10.3157 -13.8227 2.97988 -12.423 -0.0756317 0.0462048 0.000530889 0.662642 
194.587 103.037 8.22536 -5.51079 -0.0578067 -91.3085 -1.68109 1.76122 2.06908 -0.48189 9.75562 18.3347 -1.07253 -10.9064 0.0120282 -1.34469e-009 8.7523e-006 -1.47261e-008 -0.643844 8.76881 -0.0834106 0.462978 -2.34948 -0.119309 35.6034 1.70857 0.0724892 42.7158 -20.3129 5.86958 7.7443 41.5897 7.64749 -7.64346 9.57967 -0.064236 -43.8362 3.5158 -3.4667 -29.1328 -15.2934 -1.34218 -7.33807 40.5663 -10.3591 5.82328 9.61819 -0.917488 0.650322 -1.21513 -1.06822 -0.761315 2.32336 -4.81083 1.12922 10.4068 -13.7373 2.9694 -12.4412 -0.075637 0.0462048 0.000530889 0.662642 
194.639 103.034 8.21409 -5.47844 -0.07427 -91.3697 -1.69328 1.6962 2.05288 -0.489684 9.75603 18.4042 -1.06682 -10.8913 0.0120276 -1.34469e-009 8.7523e-006 -1.47261e-008 -0.69016 8.69714 -0.0812584 0.452303 -2.22967 -0.117182 35.6715 1.71251 0.0758877 42.7361 -20.0897 6.05507 7.80667 41.1787 7.68177 -7.77838 9.57978 -0.174067 -43.8426 3.51291 -3.45913 -29.1648 -15.2708 -1.42585 -7.27991 40.6498 -10.4161 5.82328 9.61819 -0.917488 0.662918 -1.30781 -1.07109 -0.767166 2.22794 -4.78631 1.1067 10.4464 -13.6842 2.9328 -12.4397 -0.0756365 0.0462048 0.000530889 0.662642 
194.675 103.032 8.20749 -5.43152 -0.0756927 -91.406 -1.69138 1.63019 2.03787 -0.492462 9.74879 18.4486 -1.08685 -10.884 0.0120273 -1.34469e-009 8.7523e-006 -1.47261e-008 -0.619079 8.66972 -0.111032 0.275314 -2.25692 -0.113617 35.9204 1.72362 0.0808475 42.5679 -20.0518 6.15013 7.74309 41.3675 7.73668 -7.46129 9.59913 -0.263589 -43.6882 3.49545 -3.44783 -29.2825 -15.1854 -1.4098 -7.18959 40.6645 -10.5247 5.82328 9.61819 -0.917488 0.809719 -1.31404 -1.13505 -0.745018 2.15741 -4.73751 1.07079 10.425 -13.7 2.91924 -12.4156 -0.0756295 0.0462048 0.000530889 0.662642 
194.7 103.03 8.20663 -5.39424 -0.0732249 -91.4048 -1.69098 1.58172 2.01393 -0.485528 9.73598 18.4699 -1.10847 -10.8782 0.0120271 -1.34469e-009 8.7523e-006 -1.47261e-008 -0.528485 8.7128 -0.156228 0.111018 -2.38482 -0.126192 36.1245 1.73122 0.085032 42.427 -20.0563 6.18529 7.63027 41.7084 7.82104 -7.16174 9.61205 -0.25749 -43.5399 3.47902 -3.43754 -29.3743 -14.9976 -1.34014 -7.10546 40.4881 -10.6676 5.82328 9.61819 -0.917488 0.97687 -1.26929 -1.18301 -0.726333 2.11029 -4.70972 1.04891 10.405 -13.7527 2.96919 -12.3993 -0.0756248 0.0462048 0.000530889 0.662642 
194.723 103.028 8.2062 -5.38714 -0.0775454 -91.3843 -1.69973 1.55676 1.99106 -0.473528 9.73864 18.4752 -1.1269 -10.873 0.0120269 -1.34469e-009 8.7523e-006 -1.47261e-008 -0.552899 8.76634 -0.175894 0.171523 -2.40907 -0.156879 36.0195 1.72803 0.0886295 42.5556 -19.9253 6.24783 7.57841 41.5574 7.93698 -7.27493 9.60719 -0.260037 -43.6009 3.48588 -3.44196 -29.3474 -14.7296 -1.33352 -7.00987 40.1538 -10.8624 5.82328 9.61819 -0.917488 0.958035 -1.23646 -1.15219 -0.724599 2.08224 -4.70333 1.0412 10.4266 -13.7906 3.02213 -12.4129 -0.0756288 0.0462048 0.000530889 0.662642 
194.741 103.027 8.2012 -5.40226 -0.0865778 -91.3628 -1.70933 1.54524 1.98232 -0.463225 9.76943 18.4629 -1.1464 -10.8799 0.0120272 -1.34469e-009 8.7523e-006 -1.47261e-008 -0.647879 8.81275 -0.16874 0.35073 -2.32854 -0.185688 35.74 1.72158 0.091478 42.8239 -19.7135 6.32294 7.57985 41.0828 8.05578 -7.55903 9.59722 -0.306869 -43.7789 3.50916 -3.46132 -29.2654 -14.4576 -1.3799 -6.88309 39.8182 -11.0961 5.82328 9.61819 -0.917488 0.843533 -1.18331 -0.962855 -0.72899 2.06642 -4.69804 1.03737 10.4787 -13.8123 3.01441 -12.4488 -0.0754729 0.0462048 0.000530889 0.662642 
194.745 103.027 8.19265 -5.41175 -0.0980751 -91.3279 -1.71561 1.52851 1.97952 -0.456489 9.81697 18.4257 -1.1601 -10.9031 0.0120281 -1.34469e-009 8.7523e-006 -1.47261e-008 -0.659908 8.899 -0.179364 0.358445 -2.36287 -0.201008 35.6649 1.7176 0.0885784 42.912 -19.5534 6.30729 7.59549 40.7651 8.12696 -7.65751 9.59228 -0.295907 -43.7933 3.51609 -3.47286 -29.2717 -14.2976 -1.37317 -6.77345 39.6665 -11.2646 5.82328 9.61819 -0.917488 0.815008 -1.38 -0.963392 -0.740308 2.04356 -4.70766 1.04851 10.5495 -13.8493 2.98158 -12.4939 -0.0750522 0.0462048 0.000530889 0.662642 
194.737 103.026 8.18468 -5.40781 -0.112839 -91.2701 -1.72148 1.50432 1.97503 -0.454425 9.86212 18.368 -1.16652 -10.9293 0.0120292 -1.34469e-009 8.7523e-006 -1.47261e-008 -0.571816 8.99882 -0.2207 0.171435 -2.52492 -0.209607 35.853 1.71832 0.073902 42.7717 -19.4056 6.19496 7.65612 40.5189 8.13514 -7.63012 9.58879 -0.213859 -43.6171 3.49802 -3.46368 -29.3741 -14.2994 -1.32423 -6.72931 39.7258 -11.3028 5.82328 9.61819 -0.917488 0.758636 -2.35338 -1.89415 -0.767576 2.01182 -4.75096 1.08648 10.6282 -13.8937 2.96879 -12.5432 -0.0748747 0.0462048 0.000530889 0.662642 
194.724 103.027 8.17997 -5.40366 -0.126052 -91.2234 -1.72479 1.49074 1.97915 -0.460133 9.88965 18.32 -1.17523 -10.9453 0.0120298 -1.34469e-009 8.7523e-006 -1.47261e-008 -0.501072 9.00792 -0.244859 0.0365671 -2.55834 -0.209656 36.0035 1.72582 0.0785873 42.6198 -19.2694 6.10959 7.75395 40.2529 8.09059 -7.58556 9.5892 -0.186346 -43.52 3.48563 -3.4537 -29.4219 -14.3908 -1.35259 -6.72495 39.8325 -11.28 5.82328 9.61819 -0.917488 0.421208 -3.8328 -3.75043 -0.797674 1.99562 -4.79755 1.12739 10.6797 -13.9011 2.95647 -12.5867 -0.0747667 0.0462048 0.000530889 0.662642 
194.702 103.028 8.17928 -5.39721 -0.135425 -91.2159 -1.72743 1.49908 1.98189 -0.470573 9.88358 18.3089 -1.18181 -10.95 0.01203 -1.34469e-009 8.7523e-006 -1.47261e-008 -0.482342 8.94168 -0.228153 0.0358847 -2.43422 -0.191853 35.9939 1.73772 0.107701 42.5548 -19.401 6.11522 7.80197 40.5322 7.94538 -7.37128 9.60068 -0.219657 -43.5999 3.4952 -3.46066 -29.3619 -14.539 -1.44866 -6.73152 39.9068 -11.2457 5.82328 9.61819 -0.917488 0.0769844 -4.68143 -5.06464 -0.809723 2.00278 -4.80317 1.13084 10.6829 -13.871 2.95317 -12.611 -0.0745534 0.0462048 0.000530889 0.662642 
194.661 103.029 8.18013 -5.37711 -0.147639 -91.2137 -1.73999 1.52496 1.9765 -0.476168 9.83783 18.3145 -1.17042 -10.9456 0.0120298 -1.34469e-009 8.7523e-006 -1.47261e-008 -0.434973 8.96984 -0.215039 -0.0031688 -2.47574 -0.169125 36.0364 1.74245 0.114733 42.4722 -19.8898 6.11902 7.80017 41.5818 7.66056 -7.02231 9.60976 -0.092643 -43.6226 3.50262 -3.47197 -29.3491 -14.881 -1.4621 -6.79276 40.1416 -11.1004 5.82328 9.61819 -0.917488 0.29645 -4.31028 -4.32627 -0.805454 2.01683 -4.77346 1.09163 10.6673 -13.8644 3.01052 -12.6188 -0.0740647 0.0462048 0.000530889 0.662642 
